<svg xmlns="http://www.w3.org/2000/svg" viewBox="0 0 178.9 178.9"><defs><style>.cls-1{fill:#f5cb5c;}.cls-2{fill:none;stroke:#000;stroke-miterlimit:10;}.cls-3{font-size:16px;font-family:Syne-Regular, Syne;}</style></defs><title>contact-switch_1</title><g id="Capa_2" data-name="Capa 2"><g id="nav"><circle class="cls-1" cx="90.98" cy="90.82" r="16.16"/><circle class="cls-2" cx="89.45" cy="89.45" r="88.95"/><text class="cls-3" transform="matrix(-0.39, 0.92, -0.92, -0.39, 151.67, 109.59)">G</text><text class="cls-3" transform="matrix(-0.53, 0.85, -0.85, -0.53, 147.32, 119.73)">E</text><text class="cls-3" transform="matrix(-0.64, 0.77, -0.77, -0.64, 142.49, 127.51)">T</text><text class="cls-3" transform="translate(137.02 133.97) rotate(134.57)"> </text><text class="cls-3" transform="matrix(-0.74, 0.67, -0.67, -0.74, 134.8, 136.25)">I</text><text class="cls-3" transform="matrix(-0.81, 0.58, -0.58, -0.81, 131.86, 139.21)">N</text><text class="cls-3" transform="translate(122.68 145.5) rotate(150.75)"> </text><text class="cls-3" transform="translate(120.09 147.2) rotate(156.81)">C</text><text class="cls-3" transform="translate(110.45 151.4) rotate(166.46)">O</text><text class="cls-3" transform="translate(99.48 154.06) rotate(176.24)">N</text><text class="cls-3" transform="matrix(-1, -0.08, 0.08, -1, 88.46, 154.72)">T</text><text class="cls-3" transform="translate(81.05 154.23) rotate(-168.37)">A</text><text class="cls-3" transform="translate(72.08 152.48) rotate(-159.8)">C</text><text class="cls-3" transform="translate(62.49 148.92) rotate(-151.75)">T</text><text class="cls-3" transform="matrix(-0.84, -0.55, 0.55, -0.84, 55.1, 144.82)"> </text><text class="cls-3" transform="translate(52.42 143.06) rotate(-143.85)"> </text><text class="cls-3" transform="translate(49.83 141.19) rotate(-140.64)">|</text><text class="cls-3" transform="translate(46.62 138.54) rotate(-137.41)"> </text><text class="cls-3" transform="matrix(-0.7, -0.71, 0.71, -0.7, 44.26, 136.38)"> </text><text class="cls-3" transform="matrix(-0.62, -0.78, 0.78, -0.62, 41.92, 134.34)">G</text><text class="cls-3" transform="translate(35.1 125.66) rotate(-119.55)">E</text><text class="cls-3" transform="matrix(-0.37, -0.93, 0.93, -0.37, 30.58, 117.69)">T</text><text class="cls-3" transform="translate(27.54 109.8) rotate(-106.7)"> </text><text class="cls-3" transform="translate(26.61 106.76) rotate(-103.4)">I</text><text class="cls-3" transform="translate(25.42 102.75) rotate(-96.66)">N</text><text class="cls-3" transform="matrix(-0.02, -1, 1, -0.02, 24.35, 91.7)"> </text><text class="cls-3" transform="translate(24.1 88.61) rotate(-84.54)">C</text><text class="cls-3" transform="translate(25.03 78.13) rotate(-74.92)">O</text><text class="cls-3" transform="matrix(0.42, -0.91, 0.91, 0.42, 27.96, 67.19)">N</text><text class="cls-3" transform="matrix(0.55, -0.83, 0.83, 0.55, 32.67, 57.23)">T</text><text class="cls-3" transform="translate(36.66 50.99) rotate(-49.59)">A</text><text class="cls-3" transform="translate(42.52 43.97) rotate(-41.14)">C</text><text class="cls-3" transform="translate(50.25 37.25) rotate(-33.14)">T</text><text class="cls-3" transform="translate(57.38 32.72) rotate(-28.06)"> </text><text class="cls-3" transform="translate(60.21 31.21) rotate(-25.23)"> </text><text class="cls-3" transform="translate(63.12 29.82) rotate(-21.96)">|</text><text class="cls-3" transform="translate(66.95 28.29) rotate(-18.72)"> </text><text class="cls-3" transform="matrix(0.96, -0.27, 0.27, 0.96, 69.99, 27.26)"> </text><text class="cls-3" transform="translate(72.9 26.18) rotate(-9.59)">G</text><text class="cls-3" transform="translate(83.78 24.4) rotate(-0.93)">E</text><text class="cls-3" transform="translate(92.95 24.27) rotate(6.82)">T</text><text class="cls-3" transform="translate(101.34 25.38) rotate(11.92)"> </text><text class="cls-3" transform="matrix(0.96, 0.26, -0.26, 0.96, 104.46, 26.02)">I</text><text class="cls-3" transform="matrix(0.93, 0.37, -0.37, 0.93, 108.53, 26.9)">N</text><text class="cls-3" transform="translate(118.76 31.25) rotate(28.25)"> </text><text class="cls-3" transform="translate(121.58 32.52) rotate(34.28)">C</text><text class="cls-3" transform="matrix(0.72, 0.69, -0.69, 0.72, 130.29, 38.38)">O</text><text class="cls-3" transform="matrix(0.59, 0.8, -0.8, 0.59, 138.48, 46.21)">N</text><text class="cls-3" transform="translate(144.98 55.13) rotate(62.05)">T</text><text class="cls-3" transform="matrix(0.36, 0.93, -0.93, 0.36, 148.55, 61.61)">A</text><text class="cls-3" transform="translate(151.9 70.1) rotate(77.63)">C</text><text class="cls-3" transform="translate(154.06 80.11) rotate(85.65)">T</text><text class="cls-3" transform="matrix(-0.02, 1, -1, -0.02, 154.6, 88.54)"> </text><text class="cls-3" transform="translate(154.56 91.78) rotate(93.47)"> </text><text class="cls-3" transform="matrix(-0.12, 0.99, -0.99, -0.12, 154.38, 94.98)">|</text><text class="cls-3" transform="translate(153.89 99.08) rotate(99.9)"> </text></g></g></svg>